{"title":"VHS Viral 2014 480p WEBRip XVID AC3 ACAB","uid":11293604,"size":1477970959,"categoryP":"video","categoryS":"movies","magnet":"?xt=urn:btih:dff5fc4284120083b1185453a07bf149ef98b09c&amp;dn=VHS+Viral+2014+480p+WEBRip+XVID+AC3+ACAB&amp;tr=udp%3A%2F%2Ftracker.openbittorrent.com%3A80&amp;tr=udp%3A%2F%2Fopen.demonii.com%3A1337&amp;tr=udp%3A%2F%2Ftracker.coppersurfer.tk%3A6969&amp;tr=udp%3A%2F%2Fexodus.desync.com%3A6969","seeders":1,"leechers":1,"uploader":".BONE.","files":3,"time":1414358964,"description":" &lt;a href=&quot;http://www.imdb.com/title/tt3704538/&quot; rel=&quot;nofollow&quot; target=&quot;_NEW&quot;&gt;http://www.imdb.com/title/tt3704538/&lt;/a&gt;\n\nSource---playnow 720 thx\n.:: GREETS ::.\nto All\n\nVideo\nID : 0\nFormat : MPEG-4 Visual\nFormat profile : Advanced Simple@L5\nFormat settings, BVOP : 2\nFormat settings, QPel : No\nFormat settings, GMC : No warppoints\nFormat settings, Matrix : Default (H.263)\nMuxing mode : Packed bitstream\nCodec ID : XVID\nCodec ID/Hint : XviD\nDuration : 1h 21mn\nBit rate : 1 995 Kbps\nWidth : 848 pixels\nHeight : 480 pixels\nDisplay aspect ratio : 16:9\nFrame rate : 23.976 fps\nColor space : YUV\nChroma subsampling : 4:2:0\nBit depth : 8 bits\nScan type : Progressive\nCompression mode : Lossy\nBits/(Pixel*Frame) : 0.204\nStream size : 1.13 GiB (84%)\nWriting library : XviD 73\n\nAudio\nID : 1\nFormat : AC-3\nFormat/Info : Audio Coding 3\nMode extension : CM (complete main)\nFormat settings, Endianness : Big\nCodec ID : 2000\nDuration : 1h 21mn\nBit rate mode : Constant\nBit rate : 384 Kbps\nChannel(s) : 6 channels\nChannel positions : Front: L C R, Side: L R, LFE\nSampling rate : 48.0 KHz\nBit depth : 16 bits\nCompression mode : Lossy\nStream size : 223 MiB (16%)\nAlignment : Aligned on interleaves\nInterleave, duration : 42 ms (1.00 video frame)\nInterleave, preload duration : 512 ms","torrent":{"xt":"urn:btih:dff5fc4284120083b1185453a07bf149ef98b09c","amp;dn":"VHS+Viral+2014+480p+WEBRip+XVID+AC3+ACAB","amp;tr":["udp%3A%2F%2Ftracker.openbittorrent.com%3A80","udp%3A%2F%2Fopen.demonii.com%3A1337","udp%3A%2F%2Ftracker.coppersurfer.tk%3A6969","udp%3A%2F%2Fexodus.desync.com%3A6969"],"infoHash":"dff5fc4284120083b1185453a07bf149ef98b09c","infoHashBuffer":{"type":"Buffer","data":[223,245,252,66,132,18,0,131,177,24,84,83,160,123,241,73,239,152,176,156]},"announce":[],"urlList":[]}}